name C:\Users\tom_v\MusculoskeletalSpecialization\ResultsSprinting\Case_4\motion.mot
datacolumns 32
datarows 10
range 0.27325413 0.32243987
endheader 
time	pelvis_tilt	pelvis_list	pelvis_rotation	pelvis_tx	pelvis_ty	pelvis_tz	hip_flexion_r	hip_adduction_r	hip_rotation_r	knee_angle_r	ankle_angle_r	subtalar_angle_r	mtp_angle_r	hip_flexion_l	hip_adduction_l	hip_rotation_l	knee_angle_l	ankle_angle_l	subtalar_angle_l	mtp_angle_l	lumbar_extension	lumbar_bending	lumbar_rotation	arm_flex_r	arm_add_r	arm_rot_r	elbow_flex_r	arm_flex_l	arm_add_l	arm_rot_l	elbow_flex_l	
          0.27325413	        -10.95824525	          1.40562729	         -0.73537071	          0.90993624	          0.89157347	          0.00231707	          2.42028391	         -2.52052933	         -0.15450752	        -49.77958751	        -10.31842986	         13.95234535	         12.05395391	         41.60404185	          4.37529382	          2.78745995	        -36.73472696	          4.08261863	         -4.22587653	          0.03772453	         -1.61536846	         -3.66020123	          2.31073391	         25.14012894	         -0.50996002	         18.20488205	          2.83800599	        -16.50285295	        -23.25304148	          1.17484041	         93.32053191	
          0.27871921	        -10.90883836	          1.30334844	         -0.82257863	          0.92867196	          0.88888408	          0.00201677	          3.34000043	         -2.50200478	         -0.34216166	        -51.43955129	         -9.37531638	         13.84207003	         11.23871101	         40.91138645	          4.57440816	          3.28652906	        -37.48684674	          5.99544822	         -4.45117733	          0.07082753	         -1.50000133	         -3.61203525	          2.21420773	         24.41632131	         -0.85327730	         18.28344417	          4.21095722	        -14.84806214	        -22.97202410	          2.21832682	         90.04184119	
          0.28418429	        -10.86118558	          1.20419144	         -0.90868898	          0.94738312	          0.88607329	          0.00171452	          4.34928368	         -2.47800903	         -0.53953308	        -53.14633473	         -8.39982463	         13.68324330	         10.47590663	         40.13032488	          4.77353106	          3.79165066	        -38.70264357	          8.45551405	         -4.61711162	          0.50551888	         -1.38339741	         -3.56493339	          2.10861592	         23.57116847	         -1.28931369	         18.37782625	          5.96093437	        -13.08073692	        -22.65241408	          3.32974170	         86.52061200	
          0.28964937	        -10.81823977	          1.10629685	         -0.98980502	          0.96600882	          0.88328090	          0.00141081	          5.44915486	         -2.44345424	         -0.74195170	        -54.87939864	         -7.39640443	         13.47558975	          9.76210927	         39.20700275	          4.95506493	          4.26616579	        -39.79686608	         11.00090440	         -4.71992106	          1.26313573	         -1.27492412	         -3.51452757	          1.99521019	         22.60364705	         -1.82526318	         18.48911046	          8.11123523	        -11.17919569	        -22.28270370	          4.51744959	         82.71851047	
          0.29511446	        -10.78311700	          1.01305528	         -1.05520873	          0.98444067	          0.88064224	          0.00108909	          6.64934792	         -2.39648117	         -0.93842130	        -56.63018308	         -6.38064488	         13.22042062	          9.09507416	         38.21510275	          5.12884748	          4.69025448	        -40.71362552	         13.36092221	         -4.85029938	          2.09510416	         -1.19046836	         -3.46253917	          1.87169900	         21.52571705	         -2.46676913	         18.61464822	         10.66765925	         -9.11163034	        -21.85128832	          5.79400273	         78.59971480	
          0.30057954	        -10.75638941	          0.92441281	         -1.10375466	          1.00262303	          0.87824546	          0.00074555	          7.94828237	         -2.33550437	         -1.12422123	        -58.37907973	         -5.35787191	         12.91912000	          8.47092524	         37.23284259	          5.29942529	          5.07255768	        -41.57711333	         15.50818830	         -4.97862074	          2.93910193	         -1.13867601	         -3.40764744	          1.74205485	         20.34861196	         -3.21624012	         18.76006703	         13.61934276	         -6.86946904	        -21.34346199	          7.15679904	         74.14978700	
          0.30604462	        -10.73757641	          0.83415348	         -1.13636273	          1.02056005	          0.87614508	          0.00038734	          9.33273440	         -2.25378555	         -1.30157768	        -60.09580176	         -4.32718918	         12.57580712	          7.88722395	         36.28204674	          5.45489780	          5.40711964	        -42.40720371	         17.30403794	         -5.10336091	          3.84385022	         -1.11934072	         -3.34285264	          1.60850843	         19.07835370	         -4.07242571	         18.92577977	         16.94675358	         -4.46704539	        -20.74356312	          8.58904281	         69.37186144	
          0.31150970	        -10.72600470	          0.73734446	         -1.15376645	          1.03828745	          0.87437045	          0.00002440	         10.78573727	         -2.14745080	         -1.47572821	        -61.75048447	         -3.29060262	         12.19485059	          7.34197705	         35.34784620	          5.58290497	          5.69268453	        -43.17962686	         18.72822786	         -5.20918812	          4.84439798	         -1.12772357	         -3.26373475	          1.47143532	         17.71758763	         -5.03019654	         19.09733670	         20.62546421	         -1.93213553	        -20.03867828	         10.06570689	         64.28515537	
          0.31697479	        -10.72095880	          0.63161382	         -1.15762509	          1.05585131	          0.87293247	         -0.00033672	         12.29144920	         -2.01695400	         -1.65085022	        -63.31905057	         -2.25287794	         11.78041401	          6.83273532	         34.40168380	          5.67547781	          5.93462585	        -43.85920676	         19.85210350	         -5.27463911	          5.93244879	         -1.15792023	         -3.16813971	          1.33151584	         16.26892011	         -6.08101348	         19.25000860	         24.62430985	          0.70045024	        -19.21923364	         11.55642282	         58.92328349	
          0.32243987	        -10.72182733	          0.51527581	         -1.15004523	          1.07329436	          0.87182920	         -0.00069297	         13.83671646	         -1.86378806	         -1.82799187	        -64.78478595	         -1.21814552	         11.33636726	          6.35709707	         33.41858806	          5.72702040	          6.13972472	        -44.41566192	         20.74535068	         -5.28513288	          7.09307433	         -1.20488891	         -3.05375165	          1.18916456	         14.73713561	         -7.21265932	         19.35493460	         28.90441295	          3.39213807	        -18.28046651	         13.02670180	         53.33491806	
